<svg id="Layer_2" data-name="Layer 2" xmlns="http://www.w3.org/2000/svg" viewBox="0 0 544.93 130.07">
  <defs>
    <style>
      .cls-1 {
        fill: #6e6aff;
      }

      .cls-1, .cls-2, .cls-3 {
        stroke-width: 0px;
      }

      .cls-2 {
        fill: #32356a;
      }

      .cls-3 {
        fill: #f7941d;
      }
    </style>
  </defs>
  <g id="Layer_1-2" data-name="Layer 1">
    <g>
      <g>
        <path class="cls-2" d="m193.64,95.49c-9.75,0-16.84-3.65-21.42-8.55l-5.24,29.84h-16.11l16.18-91.58h13.06l-.13,7.89c6.37-5.31,15.72-9.95,26.13-9.95,21.75,0,33.69,16.11,30.17,36.14-3.51,19.96-20.76,36.21-42.64,36.21Zm8.49-58.42c-12.07,0-23.48,9.09-25.8,22.28-2.25,12.93,5.9,22.15,18.04,22.15s23.41-9.15,25.73-22.15c2.25-13.13-5.84-22.28-17.97-22.28Z"/>
        <path class="cls-2" d="m259.99,66.18c1.13,9.35,8.36,15.65,18.04,15.65,8.89,0,14.12-2.79,19.23-6.83l7.23,9.55c-6.17,5.37-16.78,11.01-29.05,11.01-21.49,0-34.29-16.38-30.77-36.14,3.51-19.89,22.02-36.34,43.64-36.34,19.63,0,29.51,10.08,27.25,23.08-1.92,10.88-9.62,20.03-27.32,20.03h-28.25Zm27.79-13.13c7.23,0,11.74-2.98,12.53-7.43.66-4.18-3.45-9.08-13.93-9.08s-19.89,6.76-24.27,16.51h25.66Z"/>
        <path class="cls-2" d="m335.83,66.18c1.13,9.35,8.36,15.65,18.04,15.65,8.89,0,14.12-2.79,19.23-6.83l7.23,9.55c-6.17,5.37-16.78,11.01-29.05,11.01-21.49,0-34.28-16.38-30.77-36.14,3.51-19.89,22.02-36.34,43.63-36.34,19.63,0,29.51,10.08,27.26,23.08-1.92,10.88-9.62,20.03-27.32,20.03h-28.25Zm27.79-13.13c7.23,0,11.74-2.98,12.53-7.43.66-4.18-3.45-9.08-13.93-9.08s-19.89,6.76-24.27,16.51h25.66Z"/>
        <path class="cls-2" d="m394.95,93.44L411.4,0h16.11l-10.41,58.95,34.09-33.75h18.97l-29.24,28.91,18.97,39.32h-18.97l-13.26-28.98-13.79,13.13-2.79,15.85h-16.11Z"/>
        <path class="cls-2" d="m471.45,25.2h17.77l10.48,43.37.2,3.38,27.59-46.69,17.44-.07-40.98,66.71c-12,20.36-17.97,24.4-32.69,24.4h-10.61l2.19-13.26h11.67c5.7,0,8.69-5.37,13.46-13.53l-16.51-64.33Z"/>
      </g>
      <g>
        <path class="cls-1" d="m61.31,35.86c0,18.16-14.73,32.89-32.91,32.89-12.13,0-22.71-6.56-28.41-16.32V19.27c2.84-4.89,6.93-8.98,11.82-11.82h33.17c9.76,5.7,16.32,16.28,16.32,28.41Z"/>
        <path class="cls-1" d="m61.31,101.66c0,12.13-6.56,22.71-16.32,28.41H11.82c-4.89-2.84-8.98-6.93-11.82-11.82v-33.17c5.7-9.76,16.28-16.32,28.41-16.32,18.18,0,32.91,14.73,32.91,32.91Z"/>
        <path class="cls-3" d="m122.61,19.27v33.16c-5.7,9.76-16.28,16.32-28.41,16.32-18.16,0-32.89-14.73-32.89-32.89,0-12.12,6.56-22.71,16.3-28.41h33.17c4.89,2.84,8.98,6.93,11.82,11.82Z"/>
      </g>
    </g>
  </g>
</svg>