<svg xmlns="http://www.w3.org/2000/svg" version="1.1" xmlns:xlink="http://www.w3.org/1999/xlink" width="512" height="512" x="0" y="0" viewBox="0 0 60 60" style="enable-background:new 0 0 512 512" xml:space="preserve" class=""><g><path d="M52.047 46.378a2 2 0 0 0-1.941-.506l-2.193-2.193A13.454 13.454 0 0 0 42 24.183V13a5.006 5.006 0 0 0-5-5h-5.142A4 4 0 0 0 28 5h-1.083a6 6 0 0 0-11.834 0H14a4 4 0 0 0-3.858 3H5a5.006 5.006 0 0 0-5 5v40a5.006 5.006 0 0 0 5 5h32a5.006 5.006 0 0 0 5-5v-4.183a13.534 13.534 0 0 0 1.679-.9l2.19 2.191a1.944 1.944 0 0 0 .512 1.932l6.811 6.793a4.012 4.012 0 0 0 5.872-.222 4.091 4.091 0 0 0-.317-5.547ZM48 36.5A11.5 11.5 0 1 1 36.5 25 11.513 11.513 0 0 1 48 36.5ZM12 9a2 2 0 0 1 2-2h2a1 1 0 0 0 1-1 4 4 0 0 1 8 0 1 1 0 0 0 1 1h2a2 2 0 0 1 2 2v2H12Zm28 44a3 3 0 0 1-3 3H5a3 3 0 0 1-3-3V13a3 3 0 0 1 3-3h5v1a2 2 0 0 0 2 2h18a2 2 0 0 0 2-2v-1h5a3 3 0 0 1 3 3v10.476A13.417 13.417 0 0 0 24.183 31H17a1 1 0 0 0 0 2h6.476a13.6 13.6 0 0 0-.388 2H17a1 1 0 0 0 0 2h6.025a13.415 13.415 0 0 0 1.649 6H17a1 1 0 0 0 0 2h9.025A13.391 13.391 0 0 0 40 49.524Zm6.711-7.695 1.789 1.788-1.408 1.4-1.786-1.786a13.524 13.524 0 0 0 1.405-1.402ZM57.552 57.3a2.071 2.071 0 0 1-2.948.113l-6.811-6.791 2.841-2.829 6.7 6.682a2.115 2.115 0 0 1 .218 2.825Z" fill="#000000" opacity="1" data-original="#000000" class=""></path><path d="M11 18H7a2 2 0 0 0-2 2v4a2 2 0 0 0 2 2h4a2 2 0 0 0 2-2v-4a2 2 0 0 0-2-2Zm-4 6v-4h4v4ZM11 30H7a2 2 0 0 0-2 2v4a2 2 0 0 0 2 2h4a2 2 0 0 0 2-2v-4a2 2 0 0 0-2-2Zm-4 6v-4h4v4ZM11 42H7a2 2 0 0 0-2 2v4a2 2 0 0 0 2 2h4a2 2 0 0 0 2-2v-4a2 2 0 0 0-2-2Zm-4 6v-4h4v4ZM21 4a1 1 0 0 0-1 1v1a1 1 0 0 0 2 0V5a1 1 0 0 0-1-1ZM31.732 37.319a1 1 0 0 0-1.464 1.362l3.713 4a1 1 0 0 0 .733.319h.082a1 1 0 0 0 .752-.445l7.286-11a1 1 0 1 0-1.668-1.1l-6.584 9.941ZM17 21h18a1 1 0 0 0 0-2H17a1 1 0 0 0 0 2ZM17 25h8a1 1 0 0 0 0-2h-8a1 1 0 0 0 0 2ZM25 47h-8a1 1 0 0 0 0 2h8a1 1 0 0 0 0-2Z" fill="#000000" opacity="1" data-original="#000000" class=""></path></g></svg>