<svg xmlns="http://www.w3.org/2000/svg" version="1.1" xmlns:xlink="http://www.w3.org/1999/xlink" width="512" height="512" x="0" y="0" viewBox="0 0 64 64" style="enable-background:new 0 0 512 512" xml:space="preserve" class=""><g><path fill="#000000" fill-rule="evenodd" d="M2 12a6 6 0 0 1 6-6h42a6 6 0 0 1 6 6v15.408a17.896 17.896 0 0 0-4-1.705V13.16L32.468 26.994a6 6 0 0 1-6.936 0L6 13.16V39a2 2 0 0 0 2 2h21.11a18.196 18.196 0 0 0 0 4H8a6 6 0 0 1-6-6zm6.46-2h41.08L30.156 23.73a2 2 0 0 1-2.312 0z" clip-rule="evenodd" opacity="1" data-original="#000000" class=""></path><g fill="#fa1228"><path d="M47 35a2 2 0 0 1 2 2v7a2 2 0 1 1-4 0v-7a2 2 0 0 1 2-2zM47 51a2 2 0 1 1 0-4 2 2 0 0 1 0 4z" fill="#fa1228" opacity="1" data-original="#fa1228"></path><path fill-rule="evenodd" d="M47 28c8.284 0 15 6.716 15 15s-6.716 15-15 15-15-6.716-15-15 6.716-15 15-15zm11 15c0-6.075-4.925-11-11-11s-11 4.925-11 11 4.925 11 11 11 11-4.925 11-11z" clip-rule="evenodd" fill="#fa1228" opacity="1" data-original="#fa1228"></path></g></g></svg>