<svg xmlns="http://www.w3.org/2000/svg" version="1.1" xmlns:xlink="http://www.w3.org/1999/xlink" width="512" height="512" x="0" y="0" viewBox="0 0 48 48" style="enable-background:new 0 0 512 512" xml:space="preserve" fill-rule="evenodd" class=""><g><path fill="#80c783" d="M2.586 32.586a2 2 0 0 0 0 2.828l2 2a2 2 0 0 0 2.828 0L18 26.828l6.586 6.586a2 2 0 0 0 2.828 0L38 22.828l2.586 2.586a2 2 0 0 0 3.387-1.085l2-12a2 2 0 0 0-2.302-2.302l-12 2a2 2 0 0 0-1.085 3.387L33.172 18 26 25.172l-6.586-6.586a2 2 0 0 0-2.828 0z" opacity="1" data-original="#80c783" class=""></path></g></svg>