<svg xmlns="http://www.w3.org/2000/svg" version="1.1" xmlns:xlink="http://www.w3.org/1999/xlink" width="512" height="512" x="0" y="0" viewBox="0 0 892.56 855" style="enable-background:new 0 0 512 512" xml:space="preserve" class=""><g><path fill="#6eb6ed" d="M399.53 142.85h493.03V480H399.53z" opacity="1" data-original="#6eb6ed"></path><g fill="#3a9fdd"><path d="M399.53 142.85h493.03v59.74H399.53zM700.98 252.03h149.01v178.53H700.98zM446.91 252.03h199.13v178.53H446.91z" fill="#3a9fdd" opacity="1" data-original="#3a9fdd"></path></g><path fill="#a0cff9" d="M316.44 68h493.03v337.15H316.44z" opacity="1" data-original="#a0cff9"></path><path fill="#cae3ff" d="M316.44 68h493.03v51.5H316.44z" opacity="1" data-original="#cae3ff"></path><g fill="#fff"><circle cx="347.09" cy="100.71" r="7.99" fill="#ffffff" opacity="1" data-original="#ffffff"></circle><circle cx="377.21" cy="100.71" r="7.99" fill="#ffffff" opacity="1" data-original="#ffffff"></circle><circle cx="407.33" cy="100.71" r="7.99" fill="#ffffff" opacity="1" data-original="#ffffff"></circle><path d="M503 274.85h-19.79v25.57h-27.48v-25.57h-65.57v-19l57.4-77.22h29.56L423.9 251.9h32.7v-22.79h26.61v22.79H503zM511.38 239.55c0-40.18 22.26-63 52.17-63 30.09 0 52.18 22.78 52.18 63s-22.09 62.95-52.18 62.95c-29.91 0-52.17-22.78-52.17-62.95zm76 0c0-27.65-9.74-39.13-23.83-39.13-13.91 0-23.65 11.48-23.65 39.13s9.74 39.13 23.65 39.13c14.09 0 23.83-11.48 23.83-39.13zM740.94 274.85h-19.83v25.57h-27.48v-25.57h-65.56v-19l57.39-77.22H715l-53.19 73.27h32.69v-22.79h26.61v22.79h19.83z" fill="#ffffff" opacity="1" data-original="#ffffff"></path></g><g fill="none" stroke="#000" stroke-miterlimit="10"><path d="M455.73 274.85h-65.57M503 251.9v23h-19.79v25.57h-27.48m27.48-71.31v22.74m-6.09-73.22L423.9 251.9h32.7M592.16 185.12c14.47 10 23.57 28.65 23.57 54.43 0 40.17-22.09 62.95-52.18 62.95m-20.47-40.12c3.95 11.31 11.3 16.3 20.47 16.3 14.09 0 23.83-11.48 23.83-39.13s-9.74-39.13-23.83-39.13M740.94 251.9v23h-19.83v25.57h-27.48m27.48-71.31v22.74M715 178.68l-53.19 73.22h32.69" fill="" opacity="1"></path></g><path fill="#f98b78" d="M355.51 797.55 316.57 710l-43.64 21.6 49.71 70.77c8.82.82 20.85.38 32.87-4.82z" opacity="1" data-original="#f98b78"></path><path fill="#1e0b04" d="M278.86 854.5h19.35l64.54-40.67-7.24-16.28c-12 5.2-24.05 5.64-32.87 4.85l.28.41z" opacity="1" data-original="#1e0b04"></path><path fill="#fc9c86" d="m289.91 824.66 11.83-79.47-43.39-5.76v88.15c17.65 2.17 27-.58 31.56-2.92z" opacity="1" data-original="#fc9c86"></path><path fill="#1e0b04" d="m353.43 854.5-63.55-29.66v-.18c-4.56 2.38-13.92 5.09-31.56 2.92v26.92z" opacity="1" data-original="#1e0b04"></path><path fill="#f96479" d="M297.41 150.4a43.51 43.51 0 0 0 5.76-13.24c4.25-16.78-1.55-32.73-13-35.62s-24.1 8.38-28.35 25.16c-3.07 12.3-.82 24.12 5.18 30.72a35.58 35.58 0 0 0-3.28 3 36.19 36.19 0 0 0-11-11.6 44.33 44.33 0 0 0 4.74-11.63c4.25-16.78-1.55-32.73-13-35.62s-24.1 8.38-28.35 25.16a41.25 41.25 0 0 0-.25 20.21 36 36 0 1 0 42.62 57 36 36 0 1 0 38.94-53.47z" opacity="1" data-original="#f96479"></path><g fill="none" stroke="#1e0b04" stroke-miterlimit="10"><path d="M297.41 150.4a43.51 43.51 0 0 0 5.76-13.24M196.67 178.74a36 36 0 0 0 61.8 25.13 36 36 0 0 0 67-18.35M258.35 854.5h95.08l-63.55-29.66 11.86-79.65" fill="" opacity="1"></path></g><path fill="#f9914b" d="m199.21 398.63-14.4 194.89 95.18 172.01h59.03l-42.95-377.07z" opacity="1" data-original="#f9914b"></path><path fill="#ffcd50" d="m339.02 398.63 20.34 366.9H258.53l-2.54-377.07z" opacity="1" data-original="#ffcd50"></path><path fill="#fcb6fa" d="m199.21 341.36 28.79-2.05s-9.32-100.21-8.86-102.85-5.54-37-5.54-37l-41.21 79.16-.35-.7v.35z" opacity="1" data-original="#fcb6fa"></path><path fill="#fc9c86" d="m108.42 161.5 2.28 15.09-27.24-4.46-1.35 25.06 26.4 4.58 48.98 142.56 41.72-2.96-27.11-63.06-.04-.35-58.61-117.22z" opacity="1" data-original="#fc9c86"></path><g fill="none" stroke="#1e0b04" stroke-miterlimit="10"><path d="m82.11 197.19 26.4 4.58M82.95 189.56l16.28 3.16M82.95 183.63l16.28 3.16M82.95 177.7l16.28 3.16M110.7 176.58l-27.24-4.45M157.49 344.33l41.72-2.96-27.11-63.06-.04-.35-58.61-117.22-5.03.76" fill="" opacity="1"></path></g><path fill="#fc9c86" d="m409.35 183.4 25.42-8.47-5.08-24.57-26.27 8.47v-15.25h-5.08l-40.67 125.41-16.23 62.7h40.8z" opacity="1" data-original="#fc9c86"></path><path fill="#fcb6fa" d="M316.15 199.5s-11.87 32.2-11 34.74 23.73 97.45 23.73 97.45h12.58L357.67 269z" opacity="1" data-original="#fcb6fa"></path><g fill="none" stroke="#1e0b04" stroke-miterlimit="10"><path d="M316.15 199.5s-11.87 32.2-11 34.74 23.73 97.45 23.73 97.45h12.58L357.67 269" fill="" opacity="1"></path><path d="M341.44 331.69h40.8l27.11-148.29 25.42-8.47-5.08-24.57M216.1 126.7a41.25 41.25 0 0 0-.25 20.21" fill="" opacity="1"></path></g><path fill="#fcb6fa" d="m339 398.63-13.32-116.18a22.87 22.87 0 0 0-4.23-36.78l-5.3-46.17H213.62l-3.27 45.15a22.88 22.88 0 0 0-2.92 40.35l-8.22 113.63z" opacity="1" data-original="#fcb6fa"></path><g fill="none" stroke="#1e0b04" stroke-miterlimit="10"><path d="M199.21 398.63H339l-13.32-116.18a22.87 22.87 0 0 0-4.23-36.78l-5.3-46.17H213.62M210.35 244.65a22.88 22.88 0 0 0-2.92 40.35L206 303.73M261.86 126.7c-3.11 12.3-.86 24.12 5.14 30.72a35.58 35.58 0 0 0-3.28 3 36.19 36.19 0 0 0-11-11.6 44.33 44.33 0 0 0 4.74-11.63c4.25-16.78-1.55-32.73-13-35.62" fill="" opacity="1"></path></g><path fill="#f98b78" d="m271.87 212.64-13.56 16.94-13.55-16.94v-45.76h27.11z" opacity="1" data-original="#f98b78"></path><path fill="#fc9c86" d="M235.86 112.65h44.91v51.26a22.45 22.45 0 0 1-22.45 22.45 22.45 22.45 0 0 1-22.45-22.45v-51.26z" opacity="1" data-original="#fc9c86"></path><ellipse cx="283.95" cy="128.33" fill="#f96479" rx="11.02" ry="13.56" opacity="1" data-original="#f96479"></ellipse><path fill="#f96479" d="M254.93 128.33a31.19 31.19 0 0 0 34.88-27l-61.58-8.12a31.19 31.19 0 0 0 26.7 35.12z" opacity="1" data-original="#f96479"></path><g stroke="#1e0b04" stroke-miterlimit="10"><g fill="none"><path d="M228.23 93.21a31.06 31.06 0 1 0 61.58 8.12M253.44 140.61v20.34h5.09M420.37 173.23l13.13-4.47M418.67 167.3l13.13-4.47M417.83 159.68l13.13-4.48" fill="" opacity="1"></path></g><g fill="#1e0b04"><ellipse cx="265.73" cy="140.26" rx="1.27" ry="1.32" fill="#1e0b04" opacity="1" data-original="#1e0b04"></ellipse><ellipse cx="244.55" cy="140.26" rx="1.27" ry="1.32" fill="#1e0b04" opacity="1" data-original="#1e0b04"></ellipse><path d="m260.22 170.69 6.78-3.81" fill="#1e0b04" opacity="1" data-original="#1e0b04"></path></g></g><path fill="#cae3ff" d="M437 349h248v12H437zM477 371h134v12H477z" opacity="1" data-original="#cae3ff"></path><circle cx="784.5" cy="92.5" r="60.27" fill="#6eb6ed" opacity="1" data-original="#6eb6ed"></circle><path fill="#3a9fdd" d="m784.41 85.29-28.27-27.15-7.01 7.3 28.28 27.14-27.15 28.28 7.3 7 27.14-28.27 28.28 27.15 7-7.3-28.27-27.15 27.15-28.27-7.3-7z" opacity="1" data-original="#3a9fdd"></path><path fill="#cae3ff" d="m680.62 763.54-56.51 28.58L662 738.46a148.11 148.11 0 0 0-44.79-33.08l-34.6 67.12-13.92-80.73a148.57 148.57 0 0 0-15.14-.77 147.28 147.28 0 0 0-112.27 51.85l44 37.95-56.47-21a146.77 146.77 0 0 0-17.63 40.06L449.79 817 407 821.78a147.34 147.34 0 0 0-.15 32.22h293.43a149 149 0 0 0 .8-15.47 146.82 146.82 0 0 0-20.46-74.99z" opacity="1" data-original="#cae3ff"></path><path fill="#a0cff9" d="m663.35 811.74 25-33.3a147.69 147.69 0 0 0-18-30.12l-43.16 37.76 20.93-60.83a147 147 0 0 0-59.51-30.06L578.08 777l-32.85-85.8a146.74 146.74 0 0 0-71.72 23.36L547.26 854h153a149.25 149.25 0 0 0-3-48.81z" opacity="1" data-original="#a0cff9"></path><g fill="none" stroke="#231f20" stroke-miterlimit="10"><path d="m582.61 790.61-37.38-99.38M621.09 802.69l27-77.44a147 147 0 0 0-59.51-30.06M655.81 820.8l32.52-42.36a147.69 147.69 0 0 0-18-30.12" fill="" opacity="1"></path><path d="M547.26 854h153a149.25 149.25 0 0 0-3-48.81M719.19 854H329.81" fill="" opacity="1"></path></g><path fill="#6eb6ed" d="m415.96 854 9.68-22.64h26.42l11.32-33.2 57.35-10.57 10.56 18.87 25.66-7.55 13.58 27.92 36.98-6.03 19.24 33.2z" opacity="1" data-original="#6eb6ed"></path><g fill="none" stroke="#231f20" stroke-miterlimit="10"><path d="M425.64 831.36h26.42M607.51 820.8l19.24 33.2H415.96M556.95 798.91l13.58 27.92M463.38 798.16l57.35-10.57 10.56 18.87" fill="" opacity="1"></path></g><g fill="#a0cff9"><path d="M83.5 536a33.5 33.5 0 0 1 33.5 33.5V750H50V569.5A33.5 33.5 0 0 1 83.5 536zM17 541a17 17 0 0 1 17 17v109H0V558a17 17 0 0 1 17-17z" fill="#a0cff9" opacity="1" data-original="#a0cff9"></path><path d="M24 613h34v54H24zM165 703h-34V594a17 17 0 0 1 17-17 17 17 0 0 1 17 17v109z" fill="#a0cff9" opacity="1" data-original="#a0cff9"></path><path d="M141 703h-34v-44h34z" fill="#a0cff9" opacity="1" data-original="#a0cff9"></path></g><path fill="#6eb6ed" d="M83.25 730H9.5l36.47 123h75.09L157 730z" opacity="1" data-original="#6eb6ed"></path><path fill="#a0cff9" d="M142.66 768.6 120.99 753l-21.67 15.6L77.66 753l-21.67 15.6L34.33 753l-14.84 10.69 1.81 6.09 13.03-9.38L55.99 776l21.67-15.6L99.32 776l21.67-15.6 21.67 15.6 1.14-.83 2.74-9.36zM138.91 791.91 120.99 779l-21.67 15.6L77.66 779l-21.67 15.6L34.33 779l-8.49 6.11 1.81 6.1 6.68-4.81L55.99 802l21.67-15.6L99.32 802l21.67-15.6 16.14 11.61z" opacity="1" data-original="#a0cff9"></path><path fill="#cae3ff" d="M34.56 65.1h197.85l-8.03-15.22h-8.46L202.4 29.17l-34.25 5.92-6.34-23.68-28.32 5.92L129.68 0H80.22l-14.8 32.55H51.05z" opacity="1" data-original="#cae3ff"></path><path fill="#cae3ff" d="M378.71 35.14h108.32l-7.31-14.91h-11.86L464.21 3.2h-27.39l-13.38 21.9h-37.43z" opacity="1" data-original="#cae3ff"></path><path fill="#6eb6ed" d="M407 521.5h353v88H407z" opacity="1" data-original="#6eb6ed"></path><circle cx="473" cy="566" r="26" fill="#3a9fdd" opacity="1" data-original="#3a9fdd"></circle></g></svg>